</svg>
<?xml version="1.0" encoding="UTF-8"?>
<!-- Simple plate + fork & knife logo -->
<svg xmlns="http://www.w3.org/2000/svg" width="48" height="48" viewBox="0 0 48 48" role="img" aria-label="Logo">
  <defs>
    <style>@keyframes none {}</style>
  </defs>
  <!-- background circle (transparent - kept for spacing) -->
  <rect width="48" height="48" rx="10" fill="transparent" />

  <!-- plate -->
  <circle cx="24" cy="22" r="10.5" fill="#ffffff" stroke="#e6e6e6" stroke-width="1"/>
  <circle cx="24" cy="22" r="7.5" fill="#fff8f0" stroke="rgba(0,0,0,0.02)" stroke-width="0.5"/>

  <!-- fork (left) -->
  <g transform="translate(13,9)" fill="#b73a31">
    <rect x="2" y="2" width="1.6" height="10" rx="0.6" />
    <rect x="6" y="2" width="1.6" height="10" rx="0.6" />
    <rect x="10" y="2" width="1.6" height="10" rx="0.6" />
    <rect x="6" y="12" width="7" height="1.6" rx="0.8" />
  </g>

  <!-- knife (right) -->
  <g transform="translate(28,7)" fill="#b73a31">
    <path d="M4 2c0 .6.4 1 1 1 .6 0 1-.4 1-1V0H4v2z"/>
    <rect x="4" y="3" width="2" height="12" rx="0.8" />
    <path d="M4 16c0 .8.7 1 1.5 1S7 16.8 7 16v-1H4v1z"/>
  </g>
</svg>
</svg>
